<?xml version="1.0" encoding="UTF-8"?>
<svg version="1.1" xmlns="http://www.w3.org/2000/svg" width="512" height="512">
<path d="M0 0 C2.6590241 3.20647024 2.90146508 5.05132298 2.6875 9.13671875 C1.83762569 12.80180172 -0.15543584 15.32918226 -2.33984375 18.33984375 C-7.94339477 26.4528731 -7.70987517 36.08807386 -6.875 45.5625 C-4.66638595 55.76954121 1.35632667 64.80348264 10.125 70.5625 C21.3631997 76.44387749 30.39330713 77.55170925 42.69921875 74.66015625 C47.87855236 73.00064343 53.22127828 70.46622172 57.125 66.5625 C59.0859375 66.359375 59.0859375 66.359375 61.5 66.3125 C62.29148437 66.28671875 63.08296875 66.2609375 63.8984375 66.234375 C66.66024394 66.64137805 67.46565673 67.35343565 69.125 69.5625 C71.69250842 78.22784092 67.64131974 85.53711217 63.76953125 93.26953125 C54.79543037 109.23186754 40.89566241 119.12622547 23.5625 124.375 C18.37099916 125.70653768 13.45648093 125.87475593 8.125 125.5625 C7.54061024 133.58662089 7.79012891 139.76528269 12.92822266 146.16845703 C18.71541194 152.68196644 25.11857287 158.38383647 32.125 163.5625 C33.135625 164.325625 34.14625 165.08875 35.1875 165.875 C47.53053052 175.04076389 60.78802982 182.91143759 74.078125 190.609375 C86.00678001 197.52047047 97.8338077 204.48067746 109.3125 212.125 C110.2610083 212.75510986 111.2095166 213.38521973 112.18676758 214.03442383 C122.16508651 220.77315624 131.32668486 228.35431576 140.125 236.5625 C141.011875 237.37203125 141.89875 238.1815625 142.8125 239.015625 C161.61215938 256.85393816 174.65797702 282.34485252 175.3899231 308.51567078 C175.45185059 312.21922464 175.45542147 315.92104985 175.4375 319.625 C175.43476578 320.79127426 175.43476578 320.79127426 175.43197632 321.98110962 C175.29807025 355.85062259 164.69045654 386.26975132 143.125 412.5625 C144.115 412.58828125 145.105 412.6140625 146.125 412.640625 C154.64570687 412.96112271 161.66545373 413.31615913 168.0859375 419.4296875 C175.0992744 427.0155417 176.26590322 434.21545186 176.328125 444.375 C176.33382507 445.1069458 176.33952515 445.8388916 176.34539795 446.59301758 C176.35479587 448.13263526 176.36136106 449.67227257 176.36523438 451.21191406 C176.37497173 453.55569535 176.40605578 455.89861025 176.4375 458.2421875 C176.44402851 459.74478651 176.44927958 461.24739173 176.453125 462.75 C176.4654718 463.44391846 176.4778186 464.13783691 176.49053955 464.8527832 C176.46952956 469.47949261 175.57103511 472.63812474 173.125 476.5625 C170.47540077 477.88729962 168.48649861 477.69162551 165.5177021 477.69672108 C164.31789872 477.70117892 163.11809534 477.70563676 161.88193429 477.71022969 C160.53856857 477.71014039 159.19520285 477.70995052 157.85183716 477.70967102 C156.43402946 477.71296872 155.01622271 477.71669408 153.59841716 477.7208125 C149.68851551 477.73085113 145.7786292 477.73455227 141.86871648 477.73720181 C137.65731351 477.74109928 133.44592277 477.7506779 129.23452759 477.75941467 C119.05802377 477.77919351 108.88151894 477.78924649 98.7050007 477.79814246 C93.91679622 477.8025225 89.12859285 477.80789 84.34038925 477.81313133 C68.43089337 477.83014402 52.52139819 477.84463972 36.61189461 477.85188007 C32.4816602 477.85379007 28.35142579 477.85571039 24.22119141 477.85766602 C23.19460017 477.85814976 22.16800893 477.8586335 21.11030887 477.8591319 C4.46826482 477.8674379 -12.17370749 477.89278426 -28.81572019 477.92524669 C-45.88803162 477.95827801 -62.96030654 477.97632522 -80.03265011 477.97952431 C-89.6237496 477.98169292 -99.21474442 477.99049273 -108.80581284 478.01598549 C-116.97138645 478.03763881 -125.13682999 478.04576944 -133.30242907 478.03601871 C-137.47103872 478.03145852 -141.63937968 478.03345934 -145.80795288 478.05278015 C-149.62134139 478.07030266 -153.43426305 478.06950396 -157.24765576 478.05388286 C-158.62989781 478.05149007 -160.01217127 478.05591619 -161.39436506 478.06771151 C-163.268193 478.08271656 -165.14217931 478.07082817 -167.01601982 478.05748463 C-168.5796008 478.05894984 -168.5796008 478.05894984 -170.17476928 478.06044465 C-173.57211564 477.43394617 -174.75459694 476.23317063 -176.875 473.5625 C-177.38293457 471.50286865 -177.38293457 471.50286865 -177.39257812 469.28808594 C-177.40518677 468.45331726 -177.41779541 467.61854858 -177.43078613 466.75848389 C-177.42268921 465.86365295 -177.41459229 464.96882202 -177.40625 464.046875 C-177.4100769 463.11707825 -177.41390381 462.18728149 -177.41784668 461.22930908 C-177.42056676 459.26239947 -177.41319882 457.29545375 -177.39648438 455.32861328 C-177.3751726 452.33673014 -177.39623236 449.34727486 -177.421875 446.35546875 C-177.41922985 444.44009891 -177.414101 442.52473057 -177.40625 440.609375 C-177.41434692 439.72264099 -177.42244385 438.83590698 -177.43078613 437.92230225 C-177.32653383 430.91591437 -175.56240723 425.62924304 -170.91015625 420.3203125 C-169.93369141 419.51207031 -169.93369141 419.51207031 -168.9375 418.6875 C-168.28910156 418.13320313 -167.64070313 417.57890625 -166.97265625 417.0078125 C-163.11625101 414.35069902 -159.6383053 413.31134356 -154.97729969 413.32592678 C-154.01209426 413.32401158 -153.04688882 413.32209638 -152.05243474 413.32012314 C-150.47366025 413.33223385 -150.47366025 413.33223385 -148.86299133 413.34458923 C-147.73871442 413.34514692 -146.6144375 413.34570461 -145.45609158 413.3462792 C-141.68069057 413.3503553 -137.90548574 413.36856128 -134.13012695 413.38647461 C-131.42643967 413.3930698 -128.72275125 413.39649772 -126.01905823 413.39984131 C-120.19199273 413.40826283 -114.36497089 413.42295816 -108.53792763 413.44093132 C-99.32281736 413.46848425 -90.10776925 413.47189654 -80.8926239 413.47084045 C-79.32211552 413.47078605 -77.75160714 413.47074843 -76.18109876 413.47072738 C-73.80099397 413.4706874 -71.42088918 413.4706427 -69.04078439 413.47054933 C-60.06958709 413.4703367 -51.09839283 413.47319139 -42.12719727 413.47875977 C-41.3072382 413.47926095 -40.48727914 413.47976213 -39.64247283 413.4802785 C-26.36075378 413.48923478 -13.07920554 413.52411448 0.20244219 413.56679874 C13.84648952 413.60985344 27.49027243 413.61848893 41.1343711 413.59698874 C49.54560179 413.58494781 57.95585799 413.60056054 66.36694447 413.65194578 C72.13495207 413.68474907 77.90237376 413.68459907 83.67041459 413.65881621 C86.99615823 413.64496166 90.31883176 413.6505042 93.6446228 413.68580818 C109.18648485 414.53966544 109.18648485 414.53966544 122.59870911 408.16285706 C124.57656921 405.8386823 124.57656921 405.8386823 126.125 403.5625 C127.053125 402.675625 127.98125 401.78875 128.9375 400.875 C152.91317521 375.5292862 158.03527629 341.68986905 157.35293579 308.13829041 C156.65441581 284.15978546 142.54243161 263.28898317 125.66503906 247.16796875 C106.70093396 229.67814956 83.25559091 216.74757723 61 204 C44.93051449 194.78483643 29.37855173 185.44045977 15.125 173.5625 C14.33609375 172.91539062 13.5471875 172.26828125 12.734375 171.6015625 C8.10645625 167.69786004 3.72215618 163.45238419 0.125 158.5625 C0.125 157.9025 0.125 157.2425 0.125 156.5625 C-0.535 156.5625 -1.195 156.5625 -1.875 156.5625 C-2.2153125 157.366875 -2.2153125 157.366875 -2.5625 158.1875 C-6.06404073 164.52362132 -11.36303482 169.01861731 -16.875 173.5625 C-18.37546875 174.80193359 -18.37546875 174.80193359 -19.90625 176.06640625 C-35.02889504 188.35202798 -51.76445963 197.92452816 -68.58935547 207.66064453 C-124.86438499 239.67520929 -124.86438499 239.67520929 -156.81640625 294.01171875 C-163.69088088 323.66826872 -159.08299705 357.31921399 -143.41503906 383.56762695 C-141.18945096 387.40378088 -140.3097152 390.13443574 -140.875 394.5625 C-142.86298735 397.42023182 -144.39437342 399.10341455 -147.77734375 400.15234375 C-150.1101716 400.40756676 -151.62673816 400.24940323 -153.875 399.5625 C-158.64116474 394.90001286 -161.66037656 388.60472362 -164.4375 382.625 C-164.82244629 381.79943604 -165.20739258 380.97387207 -165.60400391 380.12329102 C-169.22987819 372.1275577 -171.85551855 364.09526395 -173.875 355.5625 C-174.19339844 354.29792969 -174.51179688 353.03335937 -174.83984375 351.73046875 C-179.44728982 331.05172102 -179.58201857 304.70547406 -172.875 284.5625 C-172.50117188 283.40878906 -172.12734375 282.25507813 -171.7421875 281.06640625 C-166.98218121 267.68479916 -159.77993901 256.46771649 -150.875 245.5625 C-150.31683594 244.86125 -149.75867188 244.16 -149.18359375 243.4375 C-146.08286631 239.65241582 -142.64184365 236.45269659 -138.91015625 233.29296875 C-137.64531711 232.21749133 -136.39892252 231.11940711 -135.18359375 229.98828125 C-117.58061906 213.72423529 -95.35979984 202.31861648 -74.81283569 190.21844482 C-37.25310895 169.76716545 -37.25310895 169.76716545 -9.875 138.5625 C-8.7862783 133.61241226 -8.76590846 128.61480199 -8.875 123.5625 C-10.133125 123.35625 -11.39125 123.15 -12.6875 122.9375 C-26.98959017 119.69211178 -40.05415971 108.70625201 -47.875 96.5625 C-57.05962124 79.99559152 -60.18981967 61.52573976 -55.3125 42.9375 C-49.76665494 26.91616982 -39.8826381 12.94977912 -24.875 4.5625 C-7.43189765 -3.71594882 -7.43189765 -3.71594882 0 0 Z M-27.328125 28.9609375 C-37.31343696 39.94478066 -40.51071301 51.48409887 -40.1875 66.0390625 C-39.52836176 79.20534883 -32.6940515 89.54054484 -23.4375 98.484375 C-11.80360539 107.91917978 1.68945204 109.82775426 16.125 108.5625 C25.85181105 106.7434883 35.42790965 101.86241437 41.125 93.5625 C40.55168945 93.5531543 39.97837891 93.54380859 39.38769531 93.53417969 C21.57582582 93.16979728 4.39681833 90.83431833 -8.875 77.5625 C-18.84985018 65.50127677 -23.98781142 53.23608102 -24.5 37.625 C-24.53867188 36.65498047 -24.57734375 35.68496094 -24.6171875 34.68554688 C-24.71075076 32.31137924 -24.79649208 29.93720508 -24.875 27.5625 C-26.09103245 27.44693028 -26.09103245 27.44693028 -27.328125 28.9609375 Z M-159.875 433.5625 C-162.14010904 442.62293615 -160.875 452.22321618 -160.875 461.5625 C-55.275 461.5625 50.325 461.5625 159.125 461.5625 C160.61056271 440.3788793 160.61056271 440.3788793 157.125 432.5625 C153.81793473 429.25543473 150.41914396 429.43732928 145.89909458 429.43386555 C144.83526163 429.4306411 143.77142867 429.42741665 142.67535836 429.4240945 C141.50757204 429.4256431 140.33978572 429.4271917 139.13661194 429.42878723 C137.27467726 429.4253889 137.27467726 429.4253889 135.37512773 429.42192191 C131.92772252 429.41667975 128.48036939 429.41593821 125.03296387 429.41711628 C121.31579026 429.41732014 117.59862445 429.41180306 113.88145447 429.40705872 C106.59845086 429.39874855 99.31545535 429.39600372 92.03244741 429.39544634 C86.11391495 429.3949714 80.19538517 429.39291776 74.27685356 429.38974571 C57.50320448 429.38093854 40.7295618 429.3763265 23.95591039 429.37707619 C23.05143897 429.37711614 22.14696754 429.3771561 21.21508789 429.37719727 C20.30951456 429.37723815 19.40394123 429.37727903 18.47092628 429.37732115 C3.78906581 429.37772775 -10.89276903 429.36815479 -25.57462209 429.3540589 C-40.64349006 429.33970536 -55.71234551 429.33278813 -70.7812205 429.33365268 C-79.24384141 429.33398497 -87.70643545 429.33122344 -96.16905022 429.32047462 C-103.37309956 429.31138312 -110.57710984 429.30918327 -117.78116243 429.31598405 C-121.45769578 429.31925595 -125.13415412 429.31928183 -128.81068039 429.3106308 C-132.79369805 429.30135481 -136.77660535 429.30752424 -140.7596283 429.31526184 C-141.92518389 429.31011828 -143.09073949 429.30497471 -144.29161495 429.29967529 C-145.35805565 429.30427408 -146.42449635 429.30887288 -147.52325344 429.31361103 C-148.44266639 429.31339366 -149.36207934 429.31317629 -150.30935329 429.31295234 C-154.2939952 429.70051859 -157.03875375 430.72625375 -159.875 433.5625 Z " fill="white" transform="translate(256.875,18.4375)"/>
</svg>
